# 3ds Max Wavefront OBJ Exporter v0.97b - (c)2007 guruware
# File Created: 24.10.2016 13:29:50

mtllib Fractured tile.mtl

#
# object Tile
#

v  0.4009 0.1000 -0.0763
v  0.1368 0.0925 -0.0837
v  -0.0003 0.1000 0.1917
v  0.2035 0.1000 0.4056
v  -0.5477 0.0850 0.8870
v  -0.5477 0.0150 0.8870
v  -0.1431 0.0075 0.8796
v  -0.1431 0.0925 0.8796
v  0.4156 0.0850 -0.0763
v  0.4119 0.0887 0.2558
v  0.4083 0.0075 0.2585
v  0.4156 0.0150 -0.0763
v  0.4009 0.0850 -0.0910
v  0.1368 0.0075 -0.0837
v  0.4009 0.0150 -0.0910
v  -0.5624 0.0850 -0.0763
v  -0.5624 0.0150 -0.0763
v  -0.5624 0.0150 0.8723
v  -0.5624 0.0850 0.8723
v  -0.5477 0.0000 0.8723
v  0.4009 0.0000 0.8723
v  0.4156 0.0150 0.8723
v  0.4009 0.0150 0.8870
v  -0.5477 0.0150 -0.0910
v  -0.5477 0.0000 -0.0763
v  0.4009 0.0000 -0.0763
v  -0.5477 0.1000 0.8723
v  0.4156 0.0850 0.8723
v  0.4009 0.1000 0.8723
v  0.4009 0.0850 0.8870
v  -0.5477 0.1000 -0.0763
v  -0.5477 0.0850 -0.0910
v  -0.0765 0.0075 -0.0837
v  -0.0765 0.0925 -0.0837
v  -0.2285 0.0000 0.2218
v  0.0479 0.1000 0.5174
v  0.0393 -0.0001 0.5236
v  -0.2285 0.1000 0.2218
v  -0.0003 0.0000 0.1917
v  0.0887 0.1000 0.5577
v  0.2211 0.1000 0.4626
v  0.4083 0.0925 0.3281
v  -0.0216 0.1000 0.5777
v  0.2035 0.0000 0.4056
v  -0.0224 0.0000 0.5797
v  0.2211 0.0000 0.4626
v  0.0780 0.0000 0.5654
v  -0.0821 0.0925 0.8796
v  -0.0821 0.0075 0.8796
v  0.0306 0.1000 0.5995
v  0.4083 0.0075 0.3281
v  0.0306 0.0000 0.5995
# 52 vertices

vn 0.3423 0.8749 -0.3427
vn -0.0367 0.7739 -0.6322
vn -0.0074 0.9999 -0.0111
vn 0.0250 0.9996 0.0102
vn -0.3375 0.3350 0.8797
vn -0.3375 -0.3350 0.8797
vn 0.0245 -0.7661 0.6423
vn 0.0245 0.7661 0.6422
vn 0.8801 0.3344 -0.3370
vn 0.6464 0.7624 0.0308
vn 0.5927 -0.8051 0.0233
vn 0.8803 -0.3344 -0.3365
vn 0.3350 0.3336 -0.8812
vn -0.0367 -0.7739 -0.6322
vn 0.3350 -0.3336 -0.8812
vn -0.8769 0.3375 -0.3422
vn -0.8769 -0.3375 -0.3422
vn -0.8769 -0.3375 0.3422
vn -0.8769 0.3375 0.3422
vn -0.3435 -0.8735 0.3451
vn 0.3431 -0.8741 0.3439
vn 0.8790 -0.3356 0.3387
vn 0.3383 -0.3354 0.8793
vn -0.3382 -0.3353 -0.8793
vn -0.3431 -0.8737 -0.3449
vn 0.3422 -0.8746 -0.3434
vn -0.3435 0.8735 0.3451
vn 0.8790 0.3356 0.3387
vn 0.3430 0.8741 0.3438
vn 0.3383 0.3354 0.8793
vn -0.3431 0.8737 -0.3449
vn -0.3382 0.3353 -0.8793
vn 0.0211 -0.5736 -0.8189
vn 0.0211 0.5736 -0.8189
vn 0.0046 -1.0000 -0.0049
vn 0.7425 -0.0886 -0.6640
vn 0.7440 -0.1048 -0.6599
vn 0.7332 -0.0163 -0.6798
vn 0.7306 0.0000 -0.6828
vn 0.8953 -0.0000 0.4455
vn 0.8953 0.0000 0.4455
vn -0.8953 0.0000 -0.4455
vn -0.0022 0.9999 0.0116
vn 0.0173 0.9998 -0.0076
vn 0.8590 0.5116 -0.0178
vn 0.0034 1.0000 0.0060
vn 0.0046 1.0000 -0.0049
vn 0.0000 1.0000 -0.0000
vn 0.0170 -0.9998 0.0070
vn -0.0005 -1.0000 0.0003
vn 0.0032 -1.0000 0.0062
vn 0.0173 -0.9998 -0.0076
vn -0.0021 -0.9999 0.0123
vn -0.0074 -0.9999 -0.0111
vn -0.0185 0.5993 0.8003
vn -0.0188 -0.5991 0.8004
vn 0.0270 0.9989 0.0376
vn -0.7240 0.0000 0.6898
vn 0.8590 -0.5116 -0.0178
vn 0.0270 -0.9989 0.0376
vn 0.5835 0.0000 0.8121
vn -0.9277 0.0000 -0.3734
vn -0.7854 0.0000 -0.6190
vn 0.9277 0.0000 0.3734
vn 0.8216 0.0046 0.5701
vn 0.8145 -0.0007 0.5802
vn -0.5835 0.0000 -0.8121
vn -0.5835 -0.0000 -0.8121
vn 0.6647 0.0002 0.7471
vn 0.6555 -0.0097 0.7552
# 70 vertex normals

vt 0.4857 0.4857 0.0000
vt 0.3598 0.4928 0.0000
vt 0.2917 0.3561 0.0000
vt 0.3859 0.2496 0.0000
vt 0.5143 0.0602 0.0000
vt 0.5143 0.0271 0.0000
vt 0.7085 0.0271 0.0000
vt 0.7085 0.0602 0.0000
vt 0.9658 0.1622 0.0000
vt 0.8065 0.1622 0.0000
vt 0.8065 0.1291 0.0000
vt 0.9658 0.1291 0.0000
vt 0.6331 0.1147 0.0000
vt 0.5074 0.1205 0.0000
vt 0.5072 0.1147 0.0000
vt 0.6331 0.0816 0.0000
vt 0.5072 0.0816 0.0000
vt 0.5072 0.2097 0.0000
vt 0.5072 0.1766 0.0000
vt 0.9658 0.1766 0.0000
vt 0.9658 0.2097 0.0000
vt 0.5072 0.0271 0.0000
vt 0.5143 0.0200 0.0000
vt 0.4857 0.9729 0.0000
vt 0.4928 0.9729 0.0000
vt 0.4857 0.9800 0.0000
vt 0.5172 0.2788 0.0000
vt 0.5072 0.2788 0.0000
vt 0.5122 0.2701 0.0000
vt 0.4857 0.5143 0.0000
vt 0.4857 0.5072 0.0000
vt 0.4928 0.5143 0.0000
vt 0.5143 0.0673 0.0000
vt 0.5072 0.0602 0.0000
vt 0.5172 0.2240 0.0000
vt 0.5122 0.2327 0.0000
vt 0.5072 0.2240 0.0000
vt 0.5172 0.2471 0.0000
vt 0.5122 0.2558 0.0000
vt 0.5072 0.2471 0.0000
vt 0.5416 0.2240 0.0000
vt 0.5366 0.2327 0.0000
vt 0.5316 0.2240 0.0000
vt 0.0271 0.5143 0.0000
vt 0.0271 0.9729 0.0000
vt 0.0200 0.9729 0.0000
vt 0.0200 0.5143 0.0000
vt 0.3562 0.5143 0.0000
vt 0.4928 0.6736 0.0000
vt 0.0271 0.0200 0.0000
vt 0.2213 0.0200 0.0000
vt 0.0271 0.0271 0.0000
vt 0.0271 0.4857 0.0000
vt 0.0200 0.4857 0.0000
vt 0.0200 0.0271 0.0000
vt 0.9729 0.0602 0.0000
vt 0.9729 0.0271 0.0000
vt 0.9800 0.0271 0.0000
vt 0.9800 0.0602 0.0000
vt 0.9729 0.1291 0.0000
vt 0.9729 0.1622 0.0000
vt 0.9658 0.1147 0.0000
vt 0.9658 0.0816 0.0000
vt 0.9729 0.0816 0.0000
vt 0.9729 0.1147 0.0000
vt 0.0271 0.5072 0.0000
vt 0.2567 0.5072 0.0000
vt 0.0271 0.4928 0.0000
vt 0.2531 0.4857 0.0000
vt 0.7362 0.1147 0.0000
vt 0.7362 0.0816 0.0000
vt 0.1814 0.6584 0.0000
vt 0.1129 -0.1271 0.1000
vt 0.1120 -0.1261 0.0000
vt -0.1551 0.1762 0.0000
vt -0.1551 0.1762 0.1000
vt -0.0068 0.4743 -0.0000
vt 0.0005 0.4890 0.0850
vt 0.0731 0.2063 0.0000
vt 0.0731 0.2063 0.1000
vt 0.2065 0.4743 0.1000
vt 0.2138 0.4890 0.0150
vt 0.3395 0.1833 0.0000
vt 0.4857 0.0271 0.0000
vt 0.3988 0.2252 0.0000
vt 0.4928 0.2927 0.0000
vt 0.2828 0.1661 0.0000
vt 0.1814 0.3416 0.0000
vt 0.3202 0.2031 0.0000
vt 0.3946 0.7441 0.0000
vt 0.3106 0.8046 0.0000
vt 0.2843 0.8234 0.0000
vt 0.3988 0.7748 0.0000
vt 0.3296 0.8246 0.0000
vt 0.2917 0.6439 0.0000
vt 0.4857 0.0200 0.0000
vt 0.2536 0.0271 0.0000
vt 0.7379 0.0602 0.0000
vt 0.7379 0.0271 0.0000
vt 0.2241 0.9729 0.0000
vt 0.0271 0.9800 0.0000
vt 0.2507 0.9800 0.0000
vt 0.3108 0.1626 0.0000
vt 0.2679 -0.0141 0.0000
vt 0.2679 -0.0141 0.1000
vt 0.4857 0.7124 0.0000
vt 0.5072 0.1622 0.0000
vt 0.5072 0.1291 0.0000
vt 0.7728 0.1291 0.0000
vt 0.7728 0.1622 0.0000
vt 0.4857 0.3213 0.0000
vt 0.4928 0.4857 0.0000
vt 0.4928 0.0271 0.0000
vt 0.3067 0.8410 0.0000
vt 0.4890 0.1448 0.0850
vt 0.2860 -0.0011 0.1000
vt 0.4743 0.1342 0.0000
vt -0.0117 -0.4890 0.0850
vt 0.1040 -0.2015 0.1000
vt 0.1040 -0.2015 0.0000
vt -0.0058 -0.4743 -0.0000
vt -0.0668 -0.4743 0.1000
vt -0.0727 -0.4890 0.0150
vt 0.0443 -0.1982 0.0000
vt 0.0577 -0.1652 0.1000
vt 0.1514 -0.1674 -0.0000
vt 0.1621 -0.1598 0.1000
vt 0.2945 -0.0646 -0.0000
vt 0.4890 0.0751 0.0150
vt 0.2945 -0.0646 0.1000
vt 0.4743 0.0646 0.1000
vt 0.1120 -0.1261 -0.0002
vt 0.1200 -0.1203 0.1000
# 133 texture coords

g Tile
usemtl _Tilewire_087225143
f 1/1/1 2/2/2 3/3/3 4/4/4 
f 5/5/5 6/6/6 7/7/7 8/8/8 
f 9/9/9 10/10/10 11/11/11 12/12/12 
f 2/13/2 1/14/1 13/15/13 14/16/14 
f 13/15/13 15/17/15 14/16/14 
f 16/18/16 17/19/17 18/20/18 19/21/19 
f 6/6/6 18/22/18 20/23/20 
f 21/24/21 22/25/22 23/26/23 
f 17/27/17 24/28/24 25/29/25 
f 26/30/26 15/31/15 12/32/12 
f 5/5/5 27/33/27 19/34/19 
f 28/35/28 29/36/29 30/37/30 
f 16/38/16 31/39/31 32/40/32 
f 13/41/13 1/42/1 9/43/9 
f 25/44/25 20/45/20 18/46/18 17/47/17 
f 15/31/15 26/30/26 14/48/14 
f 12/32/12 11/49/11 26/30/26 
f 5/50/5 8/51/8 27/52/27 
f 27/52/27 31/53/31 16/54/16 19/55/19 
f 30/56/30 23/57/23 22/58/22 28/59/28 
f 6/6/6 5/5/5 19/34/19 18/22/18 
f 9/9/9 12/12/12 15/60/15 13/61/13 
f 32/62/32 24/63/24 17/64/17 16/65/16 
f 25/44/25 24/66/24 33/67/33 
f 32/68/32 31/53/31 34/69/34 
f 24/63/24 32/62/32 34/70/34 33/71/33 
f 25/44/25 33/67/33 35/72/35 
f 36/73/36 37/74/37 35/75/38 38/76/39 
f 33/77/40 34/78/40 38/76/41 35/75/41 
f 39/79/42 3/80/42 2/81/42 14/82/42 
f 40/83/43 29/84/29 41/85/44 
f 29/84/29 42/86/45 41/85/44 
f 43/87/46 27/52/27 8/51/8 
f 38/88/47 31/53/31 27/52/27 43/87/46 
f 38/88/47 43/87/46 36/89/48 
f 38/88/47 34/69/34 31/53/31 
f 44/90/49 26/30/26 11/49/11 
f 35/72/35 37/91/50 45/92/51 25/44/25 
f 45/92/51 20/45/20 25/44/25 
f 46/93/52 21/24/21 47/94/53 
f 39/95/54 14/48/14 26/30/26 44/90/49 
f 30/96/30 29/84/29 48/97/55 
f 23/57/23 30/56/30 48/98/55 49/99/56 
f 7/100/7 6/101/6 20/45/20 45/92/51 
f 21/24/21 23/26/23 49/102/56 
f 48/97/55 29/84/29 40/83/43 50/103/57 
f 3/80/58 39/79/58 44/104/58 4/105/58 
f 22/25/22 21/24/21 51/106/59 
f 28/107/28 22/108/22 51/109/59 42/110/45 
f 10/111/10 9/112/9 1/1/1 4/4/4 
f 29/84/29 28/113/28 42/86/45 
f 47/94/53 21/24/21 49/102/56 52/114/60 
f 51/106/59 21/24/21 46/93/52 
f 10/115/61 4/116/61 44/104/61 11/117/61 
f 48/118/62 50/119/63 52/120/63 49/121/62 
f 8/122/64 7/123/64 45/124/65 43/125/66 
f 47/126/67 52/120/63 50/119/63 40/127/67 
f 46/128/68 47/126/67 40/127/67 51/129/68 
f 40/127/67 41/130/67 42/131/68 51/129/68 
f 43/125/66 45/124/65 37/132/69 36/133/70 
# 32 polygons - 28 triangles

